<svg id="Capa_1" data-name="Capa 1" xmlns="http://www.w3.org/2000/svg" viewBox="0 0 557.48 84.97"><defs><style>.cls-1{fill:#ffffff;}</style></defs><path class="cls-1" d="M127,701.51v15.91h-5V678.13h13.39a12.1,12.1,0,0,1,8.68,3.4,11.36,11.36,0,0,1,0,16.63,12.13,12.13,0,0,1-8.68,3.35ZM127,683v13.72h8.45a6.93,6.93,0,0,0,7-6.86,7,7,0,0,0-7-6.86Z" transform="translate(-104.92 -641.98)"/><path class="cls-1" d="M161.09,689.65q5.59,0,8.84,3a10.66,10.66,0,0,1,3.23,8.21v16.57h-4.83v-3.73h-.22a9.6,9.6,0,0,1-8.34,4.61,10.85,10.85,0,0,1-7.43-2.63,8.41,8.41,0,0,1-3-6.59,8,8,0,0,1,3.16-6.64,13.26,13.26,0,0,1,8.42-2.47,14.89,14.89,0,0,1,7.41,1.65v-1.15a5.76,5.76,0,0,0-2.08-4.48,7.19,7.19,0,0,0-4.89-1.84,7.73,7.73,0,0,0-6.69,3.57l-4.45-2.8Q153.89,689.66,161.09,689.65Zm-6.53,19.54a4,4,0,0,0,1.67,3.29,6.18,6.18,0,0,0,3.93,1.32,8,8,0,0,0,5.68-2.36,7.39,7.39,0,0,0,2.49-5.54,10.39,10.39,0,0,0-6.58-1.87,8.6,8.6,0,0,0-5.13,1.48A4.4,4.4,0,0,0,154.56,709.19Z" transform="translate(-104.92 -641.98)"/><path class="cls-1" d="M189,717.86a7.63,7.63,0,0,1-5.46-2,7.49,7.49,0,0,1-2.22-5.65v-15h-4.72v-4.61h4.72V682.3h5.05v8.23h6.58v4.61h-6.58v13.39c0,1.8.34,3,1,3.65a3.38,3.38,0,0,0,2.36,1,5.2,5.2,0,0,0,1.18-.13,6.72,6.72,0,0,0,1.07-.36l1.59,4.5A13.7,13.7,0,0,1,189,717.86Z" transform="translate(-104.92 -641.98)"/><path class="cls-1" d="M207.41,689.65q5.59,0,8.84,3a10.66,10.66,0,0,1,3.23,8.21v16.57h-4.83v-3.73h-.22a9.6,9.6,0,0,1-8.34,4.61,10.85,10.85,0,0,1-7.43-2.63,8.41,8.41,0,0,1-3-6.59,8,8,0,0,1,3.16-6.64,13.26,13.26,0,0,1,8.42-2.47,14.89,14.89,0,0,1,7.41,1.65v-1.15a5.76,5.76,0,0,0-2.08-4.48,7.19,7.19,0,0,0-4.89-1.84,7.73,7.73,0,0,0-6.69,3.57l-4.45-2.8Q200.22,689.66,207.41,689.65Zm-6.53,19.54a4,4,0,0,0,1.67,3.29,6.18,6.18,0,0,0,3.93,1.32,8,8,0,0,0,5.68-2.36,7.39,7.39,0,0,0,2.49-5.54,10.37,10.37,0,0,0-6.58-1.87,8.6,8.6,0,0,0-5.13,1.48A4.4,4.4,0,0,0,200.88,709.19Z" transform="translate(-104.92 -641.98)"/><path class="cls-1" d="M235.29,717.86a7.63,7.63,0,0,1-5.46-2,7.49,7.49,0,0,1-2.22-5.65v-15h-4.72v-4.61h4.72V682.3h5v8.23h6.58v4.61h-6.58v13.39c0,1.8.34,3,1,3.65a3.38,3.38,0,0,0,2.36,1,5.2,5.2,0,0,0,1.18-.13,6.72,6.72,0,0,0,1.07-.36l1.59,4.5A13.7,13.7,0,0,1,235.29,717.86Z" transform="translate(-104.92 -641.98)"/><path class="cls-1" d="M253.73,689.65q5.59,0,8.84,3a10.66,10.66,0,0,1,3.23,8.21v16.57H261v-3.73h-.21a9.63,9.63,0,0,1-8.35,4.61,10.85,10.85,0,0,1-7.43-2.63,8.4,8.4,0,0,1-3-6.59,8,8,0,0,1,3.15-6.64,13.27,13.27,0,0,1,8.43-2.47,14.82,14.82,0,0,1,7.4,1.65v-1.15a5.76,5.76,0,0,0-2.08-4.48,7.19,7.19,0,0,0-4.89-1.84,7.74,7.74,0,0,0-6.69,3.57l-4.45-2.8Q246.54,689.66,253.73,689.65Zm-6.53,19.54a4,4,0,0,0,1.67,3.29,6.18,6.18,0,0,0,3.93,1.32,8,8,0,0,0,5.68-2.36A7.39,7.39,0,0,0,261,705.9a10.37,10.37,0,0,0-6.58-1.87,8.6,8.6,0,0,0-5.13,1.48A4.42,4.42,0,0,0,247.2,709.19Z" transform="translate(-104.92 -641.98)"/><path class="cls-1" d="M109.84,677.22l-4.92-2.42a59.12,59.12,0,0,1,22-24.5c19.11-11.69,39.41-8.27,47.25-6.26a38.19,38.19,0,0,1,16.67,8.48c3.17,2.56,5.9,4.78,12.19,6.14,10.56,2.29,18.66-.55,26.5-3.29,8.34-2.92,16.23-5.68,25.75-2C263.35,656.53,270,663.48,275,674l-5,2.35c-4.39-9.25-10-15.27-16.72-17.88-7.64-3-14.27-.65-21.95,2-8.15,2.86-17.4,6.09-29.47,3.48a30.54,30.54,0,0,1-14.48-7.24,32.64,32.64,0,0,0-14.58-7.43c-7.17-1.84-25.71-5-43,5.62A53.86,53.86,0,0,0,109.84,677.22Z" transform="translate(-104.92 -641.98)"/><path class="cls-1" d="M271.59,715.74h-.67v-5.21h1.78a1.62,1.62,0,0,1,1.15.45,1.46,1.46,0,0,1,.48,1.1,1.48,1.48,0,0,1-.35,1,1.62,1.62,0,0,1-.9.54v0l1.46,2.12v0h-.79l-1.41-2.11h-.74Zm0-4.57V713h1.08a1,1,0,0,0,.69-.27.88.88,0,0,0,.29-.66.86.86,0,0,0-.27-.63.88.88,0,0,0-.67-.28Z" transform="translate(-104.92 -641.98)"/><path class="cls-1" d="M272.43,717.37a4.19,4.19,0,1,1,4.19-4.18A4.19,4.19,0,0,1,272.43,717.37Zm0-7.88a3.7,3.7,0,1,0,3.7,3.7A3.7,3.7,0,0,0,272.43,709.49Z" transform="translate(-104.92 -641.98)"/><path class="cls-1" d="M272.43,717.55a4.37,4.37,0,1,1,4.37-4.36A4.37,4.37,0,0,1,272.43,717.55Zm0-8.36a4,4,0,1,0,4,4A4,4,0,0,0,272.43,709.19Zm0,7.88a3.88,3.88,0,1,1,3.89-3.88A3.88,3.88,0,0,1,272.43,717.07Zm0-7.4a3.52,3.52,0,1,0,3.52,3.52A3.52,3.52,0,0,0,272.43,709.67Z" transform="translate(-104.92 -641.98)"/><path class="cls-1" d="M328.17,667.29v10.93H324.7v-27h9.2a8.31,8.31,0,0,1,6,2.33,7.79,7.79,0,0,1,0,11.42,8.25,8.25,0,0,1-6,2.3Zm0-12.74V664H334a4.76,4.76,0,0,0,4.83-4.71,4.83,4.83,0,0,0-4.83-4.71Z" transform="translate(-104.92 -641.98)"/><path class="cls-1" d="M352.33,678.82a8.83,8.83,0,0,1-6.71-2.78,9.85,9.85,0,0,1-2.64-7,10,10,0,0,1,2.56-7,9.21,9.21,0,0,1,13.1-.15q2.43,2.66,2.43,7.44l0,.38H346.52a6.06,6.06,0,0,0,1.81,4.37,5.84,5.84,0,0,0,9.35-1.66l3.09,1.51a9.22,9.22,0,0,1-3.45,3.66A9.51,9.51,0,0,1,352.33,678.82Zm-5.54-12.06h10.59a4.56,4.56,0,0,0-1.57-3.18,5.46,5.46,0,0,0-3.78-1.26,5.07,5.07,0,0,0-3.38,1.2A5.8,5.8,0,0,0,346.79,666.76Z" transform="translate(-104.92 -641.98)"/><path class="cls-1" d="M367.71,678.22h-3.47V659.75h3.32v3h.15a5,5,0,0,1,2.16-2.51,6,6,0,0,1,3.23-1,6.55,6.55,0,0,1,2.56.45L374.6,663a5.84,5.84,0,0,0-2-.26,4.48,4.48,0,0,0-3.41,1.58,5.3,5.3,0,0,0-1.45,3.7Z" transform="translate(-104.92 -641.98)"/><path class="cls-1" d="M382.41,653.38a2.46,2.46,0,0,1-4.19,1.74,2.45,2.45,0,1,1,3.47-3.47A2.4,2.4,0,0,1,382.41,653.38Zm-.72,6.37v18.47h-3.47V659.75Z" transform="translate(-104.92 -641.98)"/><path class="cls-1" d="M385,669a9.79,9.79,0,0,1,2.67-7,9.13,9.13,0,0,1,6.82-2.79,9,9,0,0,1,6.79,2.79,10.53,10.53,0,0,1,0,14.1,9,9,0,0,1-6.79,2.78,9.12,9.12,0,0,1-6.82-2.78A9.79,9.79,0,0,1,385,669Zm3.46,0a6.74,6.74,0,0,0,1.74,4.82,5.91,5.91,0,0,0,8.59,0,7.54,7.54,0,0,0,0-9.61,5.85,5.85,0,0,0-8.59,0A6.7,6.7,0,0,0,388.43,669Z" transform="translate(-104.92 -641.98)"/><path class="cls-1" d="M414.86,678.82a8.1,8.1,0,0,1-6.22-2.86,10.77,10.77,0,0,1,0-13.94,8.11,8.11,0,0,1,6.22-2.87,8,8,0,0,1,3.71.87,6.44,6.44,0,0,1,2.58,2.3h.15l-.15-2.57v-8.51h3.47v27H421.3v-2.56h-.15a6.51,6.51,0,0,1-2.58,2.3A8,8,0,0,1,414.86,678.82Zm.56-3.16a5.34,5.34,0,0,0,4.19-1.85,7.68,7.68,0,0,0,0-9.61,5.6,5.6,0,0,0-8.37,0,6.9,6.9,0,0,0-1.7,4.79,6.79,6.79,0,0,0,1.7,4.78A5.39,5.39,0,0,0,415.42,675.66Z" transform="translate(-104.92 -641.98)"/><path class="cls-1" d="M433.33,653.38a2.37,2.37,0,0,1-.72,1.74,2.47,2.47,0,0,1-3.47,0,2.45,2.45,0,1,1,4.19-1.74Zm-.72,6.37v18.47h-3.47V659.75Z" transform="translate(-104.92 -641.98)"/><path class="cls-1" d="M451.26,673.1a5,5,0,0,1-2.11,4.07,9.19,9.19,0,0,1-10.21.2,8,8,0,0,1-3-3.82l3.09-1.32a5.78,5.78,0,0,0,2,2.58,4.8,4.8,0,0,0,2.85.92,5,5,0,0,0,2.77-.71,2,2,0,0,0,1.11-1.7c0-1.18-.9-2.05-2.71-2.6l-3.17-.79c-3.59-.9-5.39-2.64-5.39-5.2a4.81,4.81,0,0,1,2.06-4.05,9.39,9.39,0,0,1,9.68-.36,6.3,6.3,0,0,1,2.77,3.13l-3.09,1.28a3.88,3.88,0,0,0-1.71-1.83,5.38,5.38,0,0,0-2.66-.66,4.49,4.49,0,0,0-2.43.68,1.94,1.94,0,0,0-1.08,1.66c0,1,1,1.81,3,2.26l2.79.72Q451.27,668.91,451.26,673.1Z" transform="translate(-104.92 -641.98)"/><path class="cls-1" d="M457.56,678.22h-3.47V659.75h3.32v2.57h.15a6.14,6.14,0,0,1,2.43-2.26,6.63,6.63,0,0,1,3.26-.91,6.71,6.71,0,0,1,3.58.94,5.6,5.6,0,0,1,2.26,2.6,7.21,7.21,0,0,1,6.37-3.54,6.24,6.24,0,0,1,4.94,2,8.19,8.19,0,0,1,1.73,5.58v11.53h-3.47v-11a5.89,5.89,0,0,0-.94-3.75,3.86,3.86,0,0,0-3.16-1.15A4.14,4.14,0,0,0,471.2,664a6.23,6.23,0,0,0-1.36,4v10.21h-3.46v-11a5.89,5.89,0,0,0-.95-3.75,3.86,3.86,0,0,0-3.16-1.15,4.16,4.16,0,0,0-3.36,1.69,6.22,6.22,0,0,0-1.35,4Z" transform="translate(-104.92 -641.98)"/><path class="cls-1" d="M485.15,669a9.79,9.79,0,0,1,2.67-7,9.13,9.13,0,0,1,6.82-2.79,9,9,0,0,1,6.79,2.79,10.53,10.53,0,0,1,0,14.1,9,9,0,0,1-6.79,2.78,9.12,9.12,0,0,1-6.82-2.78A9.79,9.79,0,0,1,485.15,669Zm3.46,0a6.74,6.74,0,0,0,1.74,4.82,5.91,5.91,0,0,0,8.59,0,7.54,7.54,0,0,0,0-9.61,5.85,5.85,0,0,0-8.59,0A6.7,6.7,0,0,0,488.61,669Z" transform="translate(-104.92 -641.98)"/><path class="cls-1" d="M532.11,659.75l-11.57,26.61H517l4.29-9.31-7.61-17.3h3.77l5.5,13.27H523l5.35-13.27Z" transform="translate(-104.92 -641.98)"/><path class="cls-1" d="M323,709.58a9.79,9.79,0,0,1,2.68-7.05,9.11,9.11,0,0,1,6.82-2.79,9,9,0,0,1,6.79,2.79,10.53,10.53,0,0,1,0,14.1,9,9,0,0,1-6.79,2.78,9.11,9.11,0,0,1-6.82-2.78A9.79,9.79,0,0,1,323,709.58Zm3.47,0a6.74,6.74,0,0,0,1.74,4.82,5.91,5.91,0,0,0,8.59,0,7.54,7.54,0,0,0,0-9.61,5.85,5.85,0,0,0-8.59,0A6.7,6.7,0,0,0,326.51,709.58Z" transform="translate(-104.92 -641.98)"/><path class="cls-1" d="M354.63,719.41a7.92,7.92,0,0,1-3.71-.86,6.51,6.51,0,0,1-2.58-2.3h-.15l.15,2.56V727h-3.47V700.34h3.32v2.57h.15a6.44,6.44,0,0,1,2.58-2.3,8.17,8.17,0,0,1,9.89,2,10.64,10.64,0,0,1,0,13.94A7.91,7.91,0,0,1,354.63,719.41Zm-.57-3.16a5.41,5.41,0,0,0,4.19-1.89,6.78,6.78,0,0,0,1.69-4.78,6.89,6.89,0,0,0-1.69-4.79,5.64,5.64,0,0,0-8.41,0,7.82,7.82,0,0,0,0,9.61A5.52,5.52,0,0,0,354.06,716.25Z" transform="translate(-104.92 -641.98)"/><path class="cls-1" d="M370.87,694a2.45,2.45,0,0,1-4.18,1.74,2.45,2.45,0,1,1,3.47-3.47A2.39,2.39,0,0,1,370.87,694Zm-.71,6.37v18.47h-3.47V700.34Z" transform="translate(-104.92 -641.98)"/><path class="cls-1" d="M374.68,700.34H378v2.57h.15a6.1,6.1,0,0,1,2.44-2.26,7.51,7.51,0,0,1,8.63,1A7.76,7.76,0,0,1,391,707.2v11.61h-3.47V707.43c-.08-3-1.6-4.52-4.56-4.52a4.34,4.34,0,0,0-3.47,1.67,6.09,6.09,0,0,0-1.4,4v10.21h-3.46Z" transform="translate(-104.92 -641.98)"/><path class="cls-1" d="M399.59,694a2.42,2.42,0,0,1-2.45,2.45,2.45,2.45,0,0,1-1.73-4.18,2.33,2.33,0,0,1,1.73-.72,2.37,2.37,0,0,1,1.74.72A2.39,2.39,0,0,1,399.59,694Zm-.71,6.37v18.47h-3.47V700.34Z" transform="translate(-104.92 -641.98)"/><path class="cls-1" d="M402.15,709.58a9.79,9.79,0,0,1,2.68-7.05,9.11,9.11,0,0,1,6.82-2.79,9,9,0,0,1,6.79,2.79,10.53,10.53,0,0,1,0,14.1,9,9,0,0,1-6.79,2.78,9.11,9.11,0,0,1-6.82-2.78A9.79,9.79,0,0,1,402.15,709.58Zm3.47,0a6.74,6.74,0,0,0,1.74,4.82,5.91,5.91,0,0,0,8.59,0,7.54,7.54,0,0,0,0-9.61,5.85,5.85,0,0,0-8.59,0A6.7,6.7,0,0,0,405.62,709.58Zm10.1-17.75L413,696.65h-3l2-4.82Z" transform="translate(-104.92 -641.98)"/><path class="cls-1" d="M423.94,700.34h3.32v2.57h.15a6.14,6.14,0,0,1,2.43-2.26,7.51,7.51,0,0,1,8.63,1,7.76,7.76,0,0,1,1.83,5.52v11.61h-3.47V707.43c-.07-3-1.6-4.52-4.56-4.52a4.36,4.36,0,0,0-3.47,1.67,6.09,6.09,0,0,0-1.39,4v10.21h-3.47Z" transform="translate(-104.92 -641.98)"/><path class="cls-1" d="M461,719.41a8.83,8.83,0,0,1-6.71-2.78,9.85,9.85,0,0,1-2.64-7,10,10,0,0,1,2.56-7,9.21,9.21,0,0,1,13.1-.15q2.43,2.65,2.43,7.44l0,.38H455.14a6.06,6.06,0,0,0,1.81,4.37,5.84,5.84,0,0,0,9.35-1.66l3.09,1.51a9.22,9.22,0,0,1-3.45,3.66A9.51,9.51,0,0,1,461,719.41Zm-5.54-12.06H466a4.56,4.56,0,0,0-1.57-3.18,5.46,5.46,0,0,0-3.78-1.26,5.07,5.07,0,0,0-3.38,1.2A5.8,5.8,0,0,0,455.41,707.35Z" transform="translate(-104.92 -641.98)"/><path class="cls-1" d="M472.86,700.34h3.32v2.57h.15a6,6,0,0,1,2.43-2.26,7.51,7.51,0,0,1,8.63,1,7.76,7.76,0,0,1,1.83,5.52v11.61h-3.47V707.43c-.08-3-1.6-4.52-4.56-4.52a4.36,4.36,0,0,0-3.47,1.67,6.09,6.09,0,0,0-1.39,4v10.21h-3.47Z" transform="translate(-104.92 -641.98)"/><path class="cls-1" d="M510,719.41a9.11,9.11,0,0,1-6.82-2.78,9.92,9.92,0,0,1-2.68-7,9.75,9.75,0,0,1,2.68-7.05,9.11,9.11,0,0,1,6.82-2.79,8.43,8.43,0,0,1,8.1,5.31L515,706.37a5.22,5.22,0,0,0-5.17-3.46,5.38,5.38,0,0,0-4.11,1.92,7.52,7.52,0,0,0,0,9.5,5.38,5.38,0,0,0,4.11,1.92,5.45,5.45,0,0,0,5.36-3.47l3.08,1.32a8.16,8.16,0,0,1-3.18,3.9A9,9,0,0,1,510,719.41Z" transform="translate(-104.92 -641.98)"/><path class="cls-1" d="M528.07,699.74a8.54,8.54,0,0,1,6.07,2.06,7.27,7.27,0,0,1,2.22,5.63v11.38h-3.31v-2.56h-.16a6.59,6.59,0,0,1-5.72,3.16,7.47,7.47,0,0,1-5.11-1.8,5.79,5.79,0,0,1-2-4.53,5.5,5.5,0,0,1,2.16-4.56,9.16,9.16,0,0,1,5.79-1.69,10.2,10.2,0,0,1,5.09,1.13v-.79a4,4,0,0,0-1.43-3.08,4.94,4.94,0,0,0-3.36-1.26,5.33,5.33,0,0,0-4.6,2.45l-3-1.92A8.51,8.51,0,0,1,528.07,699.74Zm-4.48,13.42a2.76,2.76,0,0,0,1.15,2.26,4.22,4.22,0,0,0,2.69.9,5.52,5.52,0,0,0,3.9-1.62,5.05,5.05,0,0,0,1.72-3.8,7.1,7.1,0,0,0-4.53-1.28,5.93,5.93,0,0,0-3.52,1A3,3,0,0,0,523.59,713.16Z" transform="translate(-104.92 -641.98)"/><path class="cls-1" d="M543.75,718.81h-3.47V700.34h3.32v3h.15a5,5,0,0,1,2.17-2.51,6,6,0,0,1,3.22-1,6.48,6.48,0,0,1,2.56.45l-1.05,3.35a5.94,5.94,0,0,0-2-.26,4.48,4.48,0,0,0-3.41,1.58,5.3,5.3,0,0,0-1.45,3.7Z" transform="translate(-104.92 -641.98)"/><path class="cls-1" d="M558.45,694a2.45,2.45,0,1,1-4.18-1.73,2.44,2.44,0,0,1,3.46,0A2.36,2.36,0,0,1,558.45,694Zm-.72,6.37v18.47h-3.46V700.34Z" transform="translate(-104.92 -641.98)"/><path class="cls-1" d="M570.51,719.41a9.11,9.11,0,0,1-6.82-2.78,9.92,9.92,0,0,1-2.68-7,9.75,9.75,0,0,1,2.68-7.05,9.11,9.11,0,0,1,6.82-2.79,8.43,8.43,0,0,1,8.1,5.31l-3.16,1.32a5.21,5.21,0,0,0-5.17-3.46,5.38,5.38,0,0,0-4.11,1.92,7.52,7.52,0,0,0,0,9.5,5.38,5.38,0,0,0,4.11,1.92,5.44,5.44,0,0,0,5.36-3.47l3.09,1.32a8.24,8.24,0,0,1-3.19,3.9A9,9,0,0,1,570.51,719.41Z" transform="translate(-104.92 -641.98)"/><path class="cls-1" d="M588.56,699.74a8.54,8.54,0,0,1,6.07,2.06,7.27,7.27,0,0,1,2.22,5.63v11.38h-3.31v-2.56h-.15a6.62,6.62,0,0,1-5.73,3.16,7.47,7.47,0,0,1-5.11-1.8,5.79,5.79,0,0,1-2-4.53,5.5,5.5,0,0,1,2.16-4.56,9.16,9.16,0,0,1,5.79-1.69,10.2,10.2,0,0,1,5.09,1.13v-.79a4,4,0,0,0-1.43-3.08,4.94,4.94,0,0,0-3.36-1.26,5.33,5.33,0,0,0-4.6,2.45l-3-1.92A8.51,8.51,0,0,1,588.56,699.74Zm-4.48,13.42a2.76,2.76,0,0,0,1.15,2.26,4.22,4.22,0,0,0,2.69.9,5.52,5.52,0,0,0,3.9-1.62,5.05,5.05,0,0,0,1.72-3.8,7.1,7.1,0,0,0-4.53-1.28,5.93,5.93,0,0,0-3.52,1A3,3,0,0,0,584.08,713.16Z" transform="translate(-104.92 -641.98)"/><path class="cls-1" d="M607.71,719.11a5.26,5.26,0,0,1-3.75-1.39,5.2,5.2,0,0,1-1.53-3.88V703.51h-3.24v-3.17h3.24v-5.65h3.47v5.65h4.52v3.17H605.9v9.19a3.36,3.36,0,0,0,.72,2.51,2.3,2.3,0,0,0,1.62.66,3.72,3.72,0,0,0,.81-.09,4.8,4.8,0,0,0,.73-.25l1.09,3.09A9.16,9.16,0,0,1,607.71,719.11Z" transform="translate(-104.92 -641.98)"/><path class="cls-1" d="M630,718.81h-3.32v-2.56h-.15a6.21,6.21,0,0,1-2.43,2.26,7,7,0,0,1-3.41.9,6.78,6.78,0,0,1-5.22-1.94,7.73,7.73,0,0,1-1.83-5.52V700.34h3.47v11.38q.11,4.53,4.56,4.53a4.32,4.32,0,0,0,3.46-1.68,6.07,6.07,0,0,0,1.4-4V700.34H630Z" transform="translate(-104.92 -641.98)"/><path class="cls-1" d="M637.63,718.81h-3.47V700.34h3.32v3h.15a5,5,0,0,1,2.17-2.51,6,6,0,0,1,3.22-1,6.57,6.57,0,0,1,2.57.45l-1.06,3.35a5.91,5.91,0,0,0-2-.26,4.45,4.45,0,0,0-3.4,1.58,5.31,5.31,0,0,0-1.46,3.7Z" transform="translate(-104.92 -641.98)"/><path class="cls-1" d="M654.11,699.74a8.53,8.53,0,0,1,6.06,2.06,7.28,7.28,0,0,1,2.23,5.63v11.38h-3.32v-2.56h-.15a6.61,6.61,0,0,1-5.73,3.16,7.47,7.47,0,0,1-5.11-1.8,5.79,5.79,0,0,1-2.05-4.53,5.48,5.48,0,0,1,2.17-4.56,9.11,9.11,0,0,1,5.78-1.69,10.18,10.18,0,0,1,5.09,1.13v-.79a4,4,0,0,0-1.43-3.08,4.93,4.93,0,0,0-3.36-1.26,5.33,5.33,0,0,0-4.6,2.45l-3.05-1.92A8.52,8.52,0,0,1,654.11,699.74Zm-4.49,13.42a2.76,2.76,0,0,0,1.15,2.26,4.22,4.22,0,0,0,2.69.9,5.52,5.52,0,0,0,3.9-1.62,5.05,5.05,0,0,0,1.72-3.8,7.09,7.09,0,0,0-4.52-1.28,5.94,5.94,0,0,0-3.53,1A3,3,0,0,0,649.62,713.16Z" transform="translate(-104.92 -641.98)"/><rect class="cls-1" x="198.77" y="9.56" width="5.8" height="67.11"/></svg>