<svg id="Capa_1" data-name="Capa 1" xmlns="http://www.w3.org/2000/svg" viewBox="0 0 171.88 76.33"><defs><style>.cls-1{fill:#1a1a1a;}</style></defs><path class="cls-1" d="M127,701.51v15.91h-5V678.13h13.39a12.1,12.1,0,0,1,8.68,3.4,11.36,11.36,0,0,1,0,16.63,12.13,12.13,0,0,1-8.68,3.35ZM127,683v13.72h8.45a6.93,6.93,0,0,0,7-6.86,7,7,0,0,0-7-6.86Z" transform="translate(-104.92 -641.98)"/><path class="cls-1" d="M161.09,689.65q5.59,0,8.84,3a10.66,10.66,0,0,1,3.23,8.21v16.57h-4.83v-3.73h-.22a9.6,9.6,0,0,1-8.34,4.61,10.85,10.85,0,0,1-7.43-2.63,8.41,8.41,0,0,1-3-6.59,8,8,0,0,1,3.16-6.64,13.26,13.26,0,0,1,8.42-2.47,14.89,14.89,0,0,1,7.41,1.65v-1.15a5.76,5.76,0,0,0-2.08-4.48,7.19,7.19,0,0,0-4.89-1.84,7.73,7.73,0,0,0-6.69,3.57l-4.45-2.8Q153.89,689.66,161.09,689.65Zm-6.53,19.54a4,4,0,0,0,1.67,3.29,6.18,6.18,0,0,0,3.93,1.32,8,8,0,0,0,5.68-2.36,7.39,7.39,0,0,0,2.49-5.54,10.39,10.39,0,0,0-6.58-1.87,8.6,8.6,0,0,0-5.13,1.48A4.4,4.4,0,0,0,154.56,709.19Z" transform="translate(-104.92 -641.98)"/><path class="cls-1" d="M189,717.86a7.63,7.63,0,0,1-5.46-2,7.49,7.49,0,0,1-2.22-5.65v-15h-4.72v-4.61h4.72V682.3h5.05v8.23h6.58v4.61h-6.58v13.39c0,1.8.34,3,1,3.65a3.38,3.38,0,0,0,2.36,1,5.2,5.2,0,0,0,1.18-.13,6.72,6.72,0,0,0,1.07-.36l1.59,4.5A13.7,13.7,0,0,1,189,717.86Z" transform="translate(-104.92 -641.98)"/><path class="cls-1" d="M207.41,689.65q5.59,0,8.84,3a10.66,10.66,0,0,1,3.23,8.21v16.57h-4.83v-3.73h-.22a9.6,9.6,0,0,1-8.34,4.61,10.85,10.85,0,0,1-7.43-2.63,8.41,8.41,0,0,1-3-6.59,8,8,0,0,1,3.16-6.64,13.26,13.26,0,0,1,8.42-2.47,14.89,14.89,0,0,1,7.41,1.65v-1.15a5.76,5.76,0,0,0-2.08-4.48,7.19,7.19,0,0,0-4.89-1.84,7.73,7.73,0,0,0-6.69,3.57l-4.45-2.8Q200.22,689.66,207.41,689.65Zm-6.53,19.54a4,4,0,0,0,1.67,3.29,6.18,6.18,0,0,0,3.93,1.32,8,8,0,0,0,5.68-2.36,7.39,7.39,0,0,0,2.49-5.54,10.37,10.37,0,0,0-6.58-1.87,8.6,8.6,0,0,0-5.13,1.48A4.4,4.4,0,0,0,200.88,709.19Z" transform="translate(-104.92 -641.98)"/><path class="cls-1" d="M235.29,717.86a7.63,7.63,0,0,1-5.46-2,7.49,7.49,0,0,1-2.22-5.65v-15h-4.72v-4.61h4.72V682.3h5v8.23h6.58v4.61h-6.58v13.39c0,1.8.34,3,1,3.65a3.38,3.38,0,0,0,2.36,1,5.2,5.2,0,0,0,1.18-.13,6.72,6.72,0,0,0,1.07-.36l1.59,4.5A13.7,13.7,0,0,1,235.29,717.86Z" transform="translate(-104.92 -641.98)"/><path class="cls-1" d="M253.73,689.65q5.59,0,8.84,3a10.66,10.66,0,0,1,3.23,8.21v16.57H261v-3.73h-.21a9.63,9.63,0,0,1-8.35,4.61,10.85,10.85,0,0,1-7.43-2.63,8.4,8.4,0,0,1-3-6.59,8,8,0,0,1,3.15-6.64,13.27,13.27,0,0,1,8.43-2.47,14.82,14.82,0,0,1,7.4,1.65v-1.15a5.76,5.76,0,0,0-2.08-4.48,7.19,7.19,0,0,0-4.89-1.84,7.74,7.74,0,0,0-6.69,3.57l-4.45-2.8Q246.54,689.66,253.73,689.65Zm-6.53,19.54a4,4,0,0,0,1.67,3.29,6.18,6.18,0,0,0,3.93,1.32,8,8,0,0,0,5.68-2.36A7.39,7.39,0,0,0,261,705.9a10.37,10.37,0,0,0-6.58-1.87,8.6,8.6,0,0,0-5.13,1.48A4.42,4.42,0,0,0,247.2,709.19Z" transform="translate(-104.92 -641.98)"/><path class="cls-1" d="M109.84,677.22l-4.92-2.42a59.12,59.12,0,0,1,22-24.5c19.11-11.69,39.41-8.27,47.25-6.26a38.19,38.19,0,0,1,16.67,8.48c3.17,2.56,5.9,4.78,12.19,6.14,10.56,2.29,18.66-.55,26.5-3.29,8.34-2.92,16.23-5.68,25.75-2C263.35,656.53,270,663.48,275,674l-5,2.35c-4.39-9.25-10-15.27-16.72-17.88-7.64-3-14.27-.65-21.95,2-8.15,2.86-17.4,6.09-29.47,3.48a30.54,30.54,0,0,1-14.48-7.24,32.64,32.64,0,0,0-14.58-7.43c-7.17-1.84-25.71-5-43,5.62A53.86,53.86,0,0,0,109.84,677.22Z" transform="translate(-104.92 -641.98)"/><path class="cls-1" d="M271.59,715.74h-.67v-5.21h1.78a1.62,1.62,0,0,1,1.15.45,1.46,1.46,0,0,1,.48,1.1,1.48,1.48,0,0,1-.35,1,1.62,1.62,0,0,1-.9.54v0l1.46,2.12v0h-.79l-1.41-2.11h-.74Zm0-4.57V713h1.08a1,1,0,0,0,.69-.27.88.88,0,0,0,.29-.66.86.86,0,0,0-.27-.63.88.88,0,0,0-.67-.28Z" transform="translate(-104.92 -641.98)"/><path class="cls-1" d="M272.43,717.37a4.19,4.19,0,1,1,4.19-4.18A4.19,4.19,0,0,1,272.43,717.37Zm0-7.88a3.7,3.7,0,1,0,3.7,3.7A3.7,3.7,0,0,0,272.43,709.49Z" transform="translate(-104.92 -641.98)"/><path class="cls-1" d="M272.43,717.55a4.37,4.37,0,1,1,4.37-4.36A4.37,4.37,0,0,1,272.43,717.55Zm0-8.36a4,4,0,1,0,4,4A4,4,0,0,0,272.43,709.19Zm0,7.88a3.88,3.88,0,1,1,3.89-3.88A3.88,3.88,0,0,1,272.43,717.07Zm0-7.4a3.52,3.52,0,1,0,3.52,3.52A3.52,3.52,0,0,0,272.43,709.67Z" transform="translate(-104.92 -641.98)"/></svg>